<svg width="4472.0451171875px" height="385.76002197265626px" xmlns="http://www.w3.org/2000/svg" viewBox="-1986.02255859375 -117.88001098632813 4472.0451171875 385.76002197265626" style="background: rgba(0, 0, 0, 0);" preserveAspectRatio="xMidYMid"><defs><linearGradient id="editing-gradient-gradient" x1="0" x2="1" y1="0.5" y2="0.5" gradientUnits="objectBoundingBox"><stop offset="0" stop-color="#281428"></stop><stop offset="1" stop-color="#00ffff"></stop></linearGradient></defs><g><g transform="translate(-1392.8998537063599, 146.20000457763672)"><path d="M74.40-137.60L74.40-137.60Q146.60-137.60 146.60-68.80L146.60-68.80L146.60-68.80Q146.60 0 74.40 0L74.40 0L14.80 0L14.80-137.60L74.40-137.60ZM59-104.60L59-33L73.60-33L73.60-33Q101.40-33 101.40-62.80L101.40-62.80L101.40-74.80L101.40-74.80Q101.40-104.60 73.60-104.60L73.60-104.60L59-104.60ZM307.40-55.40L307.40-55.40Q307.40-27.20 289.60-12.40L289.60-12.40L289.60-12.40Q271.80 2.40 239.00 2.40L239.00 2.40L239.00 2.40Q206.20 2.40 188.30-12.40L188.30-12.40L188.30-12.40Q170.40-27.20 170.40-55.40L170.40-55.40L170.40-137.60L214.60-137.60L214.60-56L214.60-56Q214.60-44.40 220.80-37.50L220.80-37.50L220.80-37.50Q227.00-30.60 238.80-30.60L238.80-30.60L238.80-30.60Q250.60-30.60 256.90-37.60L256.90-37.60L256.90-37.60Q263.20-44.60 263.20-56L263.20-56L263.20-137.60L307.40-137.60L307.40-55.40ZM474.00 0L435.40 0L377.60-66.80L377.60 0L337.00 0L337.00-137.60L375.60-137.60L433.40-69.80L433.40-137.60L474.00-137.60L474.00 0ZM547.80-78.80L596.80-137.60L651.60-137.60L602.20-81L652.60 0L600.40 0L571.80-50.40L547.80-30.80L547.80 0L503.60 0L503.60-137.60L547.80-137.60L547.80-78.80ZM716.40 0L672.20 0L672.20-137.60L716.40-137.60L716.40 0ZM878.60-95.40L878.60-95.40Q878.60-82.80 871.80-72.60L871.80-72.60L871.80-72.60Q865-62.40 852-57.60L852-57.60L882.60 0L833 0L808.60-50.20L792.20-50.20L792.20 0L748 0L748-137.60L832.20-137.60L832.20-137.60Q847-137.60 857.50-131.90L857.50-131.90L857.50-131.90Q868-126.20 873.30-116.50L873.30-116.50L873.30-116.50Q878.60-106.80 878.60-95.40L878.60-95.40ZM833.60-93.60L833.60-93.60Q833.60-99 830-102.60L830-102.60L830-102.60Q826.40-106.20 821.20-106.20L821.20-106.20L792.20-106.20L792.20-80.80L821.20-80.80L821.20-80.80Q826.40-80.80 830-84.50L830-84.50L830-84.50Q833.60-88.20 833.60-93.60L833.60-93.60ZM947.80-78.80L996.80-137.60L1051.60-137.60L1002.20-81L1052.60 0L1000.40 0L971.80-50.40L947.80-30.80L947.80 0L903.60 0L903.60-137.60L947.80-137.60L947.80-78.80ZM1136.80 0L1136.80-137.60L1255.80-137.60L1255.80-104.60L1181-104.60L1181-85.60L1245-85.60L1245-54L1181-54L1181-33L1257.20-33L1257.20 0L1136.80 0ZM1369.80 0L1318.60 0L1269.80-137.60L1317-137.60L1344.60-45.60L1345.40-45.60L1373.20-137.60L1418.40-137.60L1369.80 0ZM1436.80 0L1436.80-137.60L1555.80-137.60L1555.80-104.60L1481-104.60L1481-85.60L1545-85.60L1545-54L1481-54L1481-33L1557.20-33L1557.20 0L1436.80 0ZM1718.20 0L1679.60 0L1621.80-66.80L1621.80 0L1581.20 0L1581.20-137.60L1619.80-137.60L1677.60-69.80L1677.60-137.60L1718.20-137.60L1718.20 0ZM1872-102.40L1827-102.40L1827 0L1782.80 0L1782.80-102.40L1737.60-102.40L1737.60-137.60L1872-137.60L1872-102.40ZM2027.20-140L2027.20-140Q2062.80-140 2082.20-121.80L2082.20-121.80L2082.20-121.80Q2101.60-103.60 2101.60-68.80L2101.60-68.80L2101.60-68.80Q2101.60-34 2082.20-15.80L2082.20-15.80L2082.20-15.80Q2062.80 2.40 2027.20 2.40L2027.20 2.40L2027.20 2.40Q1991.60 2.40 1972.30-15.70L1972.30-15.70L1972.30-15.70Q1953-33.80 1953-68.80L1953-68.80L1953-68.80Q1953-103.80 1972.30-121.90L1972.30-121.90L1972.30-121.90Q1991.60-140 2027.20-140L2027.20-140ZM2027.20-107L2027.20-107Q2013-107 2005.60-98.40L2005.60-98.40L2005.60-98.40Q1998.20-89.80 1998.20-75.20L1998.20-75.20L1998.20-62.40L1998.20-62.40Q1998.20-47.80 2005.60-39.20L2005.60-39.20L2005.60-39.20Q2013-30.60 2027.20-30.60L2027.20-30.60L2027.20-30.60Q2041.40-30.60 2048.90-39.20L2048.90-39.20L2048.90-39.20Q2056.40-47.80 2056.40-62.40L2056.40-62.40L2056.40-75.20L2056.40-75.20Q2056.40-89.80 2048.90-98.40L2048.90-98.40L2048.90-98.40Q2041.40-107 2027.20-107L2027.20-107ZM2256-95.40L2256-95.40Q2256-82.80 2249.20-72.60L2249.20-72.60L2249.20-72.60Q2242.40-62.40 2229.40-57.60L2229.40-57.60L2260 0L2210.40 0L2186-50.20L2169.60-50.20L2169.60 0L2125.40 0L2125.40-137.60L2209.60-137.60L2209.60-137.60Q2224.40-137.60 2234.90-131.90L2234.90-131.90L2234.90-131.90Q2245.40-126.20 2250.70-116.50L2250.70-116.50L2250.70-116.50Q2256-106.80 2256-95.40L2256-95.40ZM2211-93.60L2211-93.60Q2211-99 2207.40-102.60L2207.40-102.60L2207.40-102.60Q2203.80-106.20 2198.60-106.20L2198.60-106.20L2169.60-106.20L2169.60-80.80L2198.60-80.80L2198.60-80.80Q2203.80-80.80 2207.40-84.50L2207.40-84.50L2207.40-84.50Q2211-88.20 2211-93.60L2211-93.60ZM2350.20-140L2350.20-140Q2370-140 2385.80-134L2385.80-134L2385.80-134Q2401.60-128 2410.90-116.30L2410.90-116.30L2410.90-116.30Q2420.20-104.60 2420.20-87.80L2420.20-87.80L2378-87.80L2378-87.80Q2378-96.40 2370.40-101.70L2370.40-101.70L2370.40-101.70Q2362.80-107 2352-107L2352-107L2352-107Q2336.40-107 2328.40-98.70L2328.40-98.70L2328.40-98.70Q2320.40-90.40 2320.40-75.20L2320.40-75.20L2320.40-62.40L2320.40-62.40Q2320.40-47.20 2328.40-38.90L2328.40-38.90L2328.40-38.90Q2336.40-30.60 2352-30.60L2352-30.60L2352-30.60Q2362.80-30.60 2370.40-35.70L2370.40-35.70L2370.40-35.70Q2378-40.80 2378-48.80L2378-48.80L2346.80-48.80L2346.80-76.80L2420.20-76.80L2420.20 0L2397.40 0L2393-13.60L2393-13.60Q2374.20 2.40 2343.80 2.40L2343.80 2.40L2343.80 2.40Q2309.60 2.40 2292.40-15.50L2292.40-15.50L2292.40-15.50Q2275.20-33.40 2275.20-68.80L2275.20-68.80L2275.20-68.80Q2275.20-103.80 2294.70-121.90L2294.70-121.90L2294.70-121.90Q2314.20-140 2350.20-140L2350.20-140ZM2586.60 0L2539.80 0L2534.00-19.40L2485.80-19.40L2480.00 0L2434.80 0L2485.00-137.60L2536.40-137.60L2586.60 0ZM2509.60-99.20L2495.00-50.20L2524.80-50.20L2510.40-99.20L2509.60-99.20ZM2740.20 0L2701.60 0L2643.80-66.80L2643.80 0L2603.20 0L2603.20-137.60L2641.80-137.60L2699.60-69.80L2699.60-137.60L2740.20-137.60L2740.20 0ZM2816.00 0L2771.80 0L2771.80-137.60L2816.00-137.60L2816.00 0ZM2969.40-123.40L2905.60-33L2971.00-33L2971.00 0L2837.60 0L2837.60-14.20L2901.40-104.60L2842.40-104.60L2842.40-137.60L2969.40-137.60L2969.40-123.40ZM2992 0L2992-137.60L3111-137.60L3111-104.60L3036.20-104.60L3036.20-85.60L3100.20-85.60L3100.20-54L3036.20-54L3036.20-33L3112.40-33L3112.40 0L2992 0ZM3267-95.40L3267-95.40Q3267-82.80 3260.20-72.60L3260.20-72.60L3260.20-72.60Q3253.40-62.40 3240.40-57.60L3240.40-57.60L3271 0L3221.40 0L3197-50.20L3180.60-50.20L3180.60 0L3136.40 0L3136.40-137.60L3220.60-137.60L3220.60-137.60Q3235.40-137.60 3245.90-131.90L3245.90-131.90L3245.90-131.90Q3256.40-126.20 3261.70-116.50L3261.70-116.50L3261.70-116.50Q3267-106.80 3267-95.40L3267-95.40ZM3222-93.60L3222-93.60Q3222-99 3218.40-102.60L3218.40-102.60L3218.40-102.60Q3214.80-106.20 3209.60-106.20L3209.60-106.20L3180.60-106.20L3180.60-80.80L3209.60-80.80L3209.60-80.80Q3214.80-80.80 3218.40-84.50L3218.40-84.50L3218.40-84.50Q3222-88.20 3222-93.60L3222-93.60Z" fill="url(#editing-gradient-gradient)"></path></g></g><style>text {
  font-size: 64px;
  font-family: Arial Black;
  dominant-baseline: central;
  text-anchor: middle;
}</style></svg>