<?xml version="1.0" encoding="iso-8859-1"?>
<!-- Uploaded to: SVG Repo, www.svgrepo.com, Generator: SVG Repo Mixer Tools -->
<svg fill="#000000" height="800px" width="800px" version="1.1" id="Layer_1" xmlns="http://www.w3.org/2000/svg" xmlns:xlink="http://www.w3.org/1999/xlink" 
	 viewBox="0 0 485 485" xml:space="preserve">
<g>
	<path d="M156.619,244.242c30.89-21.789,51.246-58.722,51.246-100.535c0-66.834-51.98-121.207-115.887-121.207L0,22.597V462.5h30
		V264.887h81.993c47.35,0,85.872,40.915,85.872,91.207V462.5h30V356.094C227.865,305.796,198.422,262.559,156.619,244.242z
		 M30,234.887V52.565L91.993,52.5c47.35,0,85.872,40.915,85.872,91.207c0,50.277-38.522,91.18-85.872,91.18H30z"/>
	<path d="M371.17,89.331c-33.137,0-63.008,14.237-83.83,36.91V87.476h-30v115.685v41.838V462.5h30V321.918
		c20.821,22.674,50.693,36.91,83.83,36.91c62.766,0,113.83-51.064,113.83-113.83v-41.838C485,140.395,433.936,89.331,371.17,89.331z
		 M455,244.999c0,46.224-37.606,83.83-83.83,83.83s-83.83-37.606-83.83-83.83v-41.838c0-46.224,37.606-83.83,83.83-83.83
		S455,156.937,455,203.161V244.999z"/>
</g>
</svg>